<svg width="36" height="36" viewBox="0 0 36 36" fill="none" xmlns="http://www.w3.org/2000/svg">
<path d="M13.2221 3.54119C12.7541 3.64847 12.3782 3.87887 12.0103 4.27739C11.5884 4.72991 11.5653 4.79903 11.1744 6.37115C10.998 7.06919 10.8291 7.76687 10.7831 7.92059L10.7064 8.21219H7.00235C3.85019 8.21219 3.24431 8.22767 2.88395 8.33495C1.76435 8.66471 0.851392 9.55427 0.506512 10.6742C0.367912 11.1185 0.360352 11.5253 0.360352 20.3679C0.360352 29.211 0.367912 29.6174 0.506152 30.0624C0.866512 31.2281 1.87883 32.1716 3.05243 32.4398C3.52043 32.5472 32.4807 32.5472 32.9483 32.4398C34.1216 32.1713 35.1342 31.2281 35.4945 30.0624C35.6328 29.6174 35.6403 29.211 35.6403 20.3759C35.6403 12.1848 35.6249 11.1109 35.5176 10.7351C35.1879 9.61547 34.2983 8.70251 33.1784 8.35763C32.7489 8.21975 32.4267 8.21183 28.9983 8.21183H25.2939L25.2173 7.92023C25.1712 7.76687 25.0028 7.06883 24.8264 6.37079C24.6575 5.67275 24.4581 4.98263 24.3969 4.82927C24.228 4.44587 23.6376 3.88607 23.1771 3.67115L22.7937 3.49475L18.1538 3.47927C15.5919 3.47207 13.3833 3.50267 13.2221 3.54119ZM22.7556 5.27423C22.9701 5.46611 23.0318 5.64251 23.3309 6.83123C23.5227 7.56743 23.6762 8.18087 23.6762 8.18879C23.6762 8.20391 21.1223 8.21183 18.0008 8.21183C14.8791 8.21183 12.3253 8.20427 12.3253 8.18879C12.3253 8.18123 12.4787 7.56743 12.6705 6.83123C12.9697 5.64251 13.0309 5.46611 13.2458 5.27423L13.4759 5.06723H18.0011H22.5263L22.7556 5.27423ZM32.7183 9.86855C33.0099 9.95279 33.2319 10.091 33.4929 10.3517C34.1525 11.0112 34.1064 10.2905 34.1064 20.3298C34.1064 30.147 34.1295 29.6714 33.6078 30.2774C33.462 30.4538 33.1784 30.6762 32.9714 30.776L32.6109 30.9524L18.1617 30.9753C2.26258 30.9984 3.23675 31.0214 2.63843 30.5304C2.48507 30.4001 2.26259 30.1239 2.13983 29.9321L1.93283 29.5718V20.3684V11.1649L2.10167 10.8503C2.32415 10.4283 2.83787 9.99887 3.27527 9.86099C3.56687 9.77675 5.9137 9.75371 17.9701 9.75371C30.8085 9.74579 32.3579 9.76127 32.7183 9.86855Z" fill="#6EEBE7"/>
<path d="M25.8237 11.74V12.5068H29.1598H32.496V11.74V10.9732H29.1598H25.8237V11.74Z" fill="#6EEBE7"/>
<path d="M16.5042 11.8627C12.9687 12.4916 10.1999 15.2373 9.50941 18.7884C9.34849 19.6553 9.34849 21.0891 9.51697 21.9636C10.1534 25.277 12.5849 27.854 15.9135 28.751C16.5808 28.9274 16.7955 28.9505 17.9997 28.9505C19.2039 28.9505 19.4184 28.9274 20.0859 28.751C23.4069 27.8535 25.8534 25.2612 26.4823 21.9636C26.9043 19.7471 26.3751 17.27 25.0711 15.4217C23.1459 12.691 19.756 11.2798 16.5042 11.8627ZM18.8355 13.3506C20.4843 13.5576 21.9877 14.3247 23.1459 15.5441C23.9205 16.3649 24.4422 17.285 24.7947 18.4586C24.9865 19.08 25.0095 19.2485 25.0095 20.3684C25.0095 21.4805 24.9865 21.6569 24.8025 22.2704C24.0048 24.8627 22.0186 26.7188 19.4184 27.2862C18.7282 27.4395 17.2861 27.4395 16.5805 27.2862C13.3899 26.5961 11.1121 23.9192 10.9663 20.6751C10.8742 18.5738 11.6413 16.6791 13.1674 15.2373C14.7323 13.7725 16.7649 13.0975 18.8355 13.3506Z" fill="#6EEBE7"/>
</svg>
